<?xml version="1.0" encoding="UTF-8" standalone="no"?>
<svg
   height="32"
   style="clip-rule:evenodd;fill-rule:evenodd;stroke-linejoin:round;stroke-miterlimit:2"
   version="1.1"
   viewBox="0 0 32 32"
   width="32"
   xml:space="preserve"
   id="svg4"
   sodipodi:docname="stone.svg"
   inkscape:version="1.1.2 (0a00cf5339, 2022-02-04)"
   xmlns:inkscape="http://www.inkscape.org/namespaces/inkscape"
   xmlns:sodipodi="http://sodipodi.sourceforge.net/DTD/sodipodi-0.dtd"
   xmlns="http://www.w3.org/2000/svg"
   xmlns:svg="http://www.w3.org/2000/svg"><sodipodi:namedview
     id="namedview5"
     pagecolor="#ffffff"
     bordercolor="#666666"
     borderopacity="1.0"
     inkscape:pageshadow="2"
     inkscape:pageopacity="0.0"
     inkscape:pagecheckerboard="0"
     showgrid="false"
     inkscape:showpageshadow="false"
     showborder="false"
     inkscape:zoom="21.71875"
     inkscape:cx="15.976978"
     inkscape:cy="16"
     inkscape:window-width="1920"
     inkscape:window-height="1002"
     inkscape:window-x="0"
     inkscape:window-y="0"
     inkscape:window-maximized="1"
     inkscape:current-layer="svg4" /><defs
     id="defs8"><filter
       inkscape:collect="always"
       style="color-interpolation-filters:sRGB"
       id="filter3892"
       x="-0.0050830317"
       y="-0.0051466335"
       width="1.0101661"
       height="1.0102933"><feGaussianBlur
         inkscape:collect="always"
         stdDeviation="0.0058733682"
         id="feGaussianBlur3894" /></filter></defs><path
     style="mix-blend-mode:normal;fill:#c7aa8b;fill-opacity:1;stroke-width:0.0460432;filter:url(#filter3892)"
     d="M 5.8192046,5.4919631 5.2614308,5.2108404 5.1344126,4.8133873 5.0073945,4.4159343 5.1292417,4.0164597 5.2510889,3.6169851 5.8223552,3.3259813 6.3936214,3.0349774 6.9640904,3.3208896 7.5345594,3.6068019 7.6575593,4.0166503 7.7805591,4.4264987 7.6520163,4.8146882 7.5234736,5.2028777 6.9732476,5.4887662 C 6.6706233,5.6460048 6.4126619,5.7743017 6.4,5.7738703 6.3873381,5.7734388 6.1259802,5.6465807 5.8192046,5.4919631 Z M 6.4460432,4.3971223 c 0,-0.025324 -0.02072,-0.046043 -0.046043,-0.046043 -0.025324,0 -0.046043,0.02072 -0.046043,0.046043 0,0.025324 0.02072,0.046043 0.046043,0.046043 0.025324,0 0.046043,-0.02072 0.046043,-0.046043 z"
     id="path3853"
     transform="matrix(11.328305,0,0,11.622681,-56.565607,-35.11074)" /><path
     style="fill:#c7aa8b;stroke-width:0.0460432"
     d="m 15.760958,16.415689 c -0.116358,-0.04888 -0.23281,-0.212993 -0.245956,-0.346624 -0.01898,-0.192956 0.0057,-0.264434 0.136132,-0.394909 0.178408,-0.178408 0.367125,-0.178684 0.56618,-8.29e-4 0.126397,0.112936 0.148913,0.163838 0.144635,0.326987 -0.0083,0.315944 -0.321822,0.532646 -0.600991,0.415375 z"
     id="path1056" /><path
     style="fill:#c7aa8b;stroke-width:0.0460432;stroke:none;stroke-opacity:1"
     d="m 15.660879,16.305883 c -0.05607,-0.05968 -0.113724,-0.18115 -0.128133,-0.269938 -0.0355,-0.218772 0.172323,-0.465681 0.391966,-0.465681 0.207906,0 0.420612,0.211825 0.420612,0.41887 0,0.350419 -0.454999,0.560984 -0.684445,0.316749 z"
     id="path1095" /></svg>
